<svg width="14" height="12" viewBox="0 0 14 12" fill="none" xmlns="http://www.w3.org/2000/svg">
<path d="M0.999995 0H13C13.1768 0 13.3464 0.0702379 13.4714 0.195262C13.5964 0.320286 13.6667 0.489856 13.6667 0.666667V11.3333C13.6667 11.5101 13.5964 11.6797 13.4714 11.8047C13.3464 11.9298 13.1768 12 13 12H0.999995C0.823184 12 0.653615 11.9298 0.52859 11.8047C0.403566 11.6797 0.333328 11.5101 0.333328 11.3333V0.666667C0.333328 0.489856 0.403566 0.320286 0.52859 0.195262C0.653615 0.0702379 0.823184 0 0.999995 0ZM12.3333 5.33333H1.66666V10.6667H12.3333V5.33333ZM12.3333 4V1.33333H1.66666V4H12.3333ZM8.33333 8H11V9.33333H8.33333V8Z" fill="#6AB1AB"/>
</svg>
