<svg width="15" height="15" viewBox="0 0 15 15" fill="none" xmlns="http://www.w3.org/2000/svg">
<path d="M12.4583 14.5833H2.54167C1.97809 14.5833 1.43758 14.3594 1.03907 13.9609C0.640555 13.5624 0.416672 13.0219 0.416672 12.4583V1.12499C0.416672 0.937128 0.491299 0.756961 0.624138 0.624123C0.756976 0.491284 0.937143 0.416656 1.12501 0.416656H11.0417C11.2295 0.416656 11.4097 0.491284 11.5425 0.624123C11.6754 0.756961 11.75 0.937128 11.75 1.12499V9.62499H14.5833V12.4583C14.5833 13.0219 14.3595 13.5624 13.9609 13.9609C13.5624 14.3594 13.0219 14.5833 12.4583 14.5833ZM11.75 11.0417V12.4583C11.75 12.6462 11.8246 12.8264 11.9575 12.9592C12.0903 13.092 12.2705 13.1667 12.4583 13.1667C12.6462 13.1667 12.8264 13.092 12.9592 12.9592C13.092 12.8264 13.1667 12.6462 13.1667 12.4583V11.0417H11.75ZM10.3333 13.1667V1.83332H1.83334V12.4583C1.83334 12.6462 1.90797 12.8264 2.0408 12.9592C2.17364 13.092 2.35381 13.1667 2.54167 13.1667H10.3333ZM3.25001 3.95832H8.91667V5.37499H3.25001V3.95832ZM3.25001 6.79166H8.91667V8.20832H3.25001V6.79166ZM3.25001 9.62499H6.79167V11.0417H3.25001V9.62499Z" fill="#6AB1AB"/>
</svg>
