<svg width="14" height="14" viewBox="0 0 14 14" fill="none" xmlns="http://www.w3.org/2000/svg">
<path d="M6.894 1.66666C6.74296 2.09495 6.66608 2.54586 6.66667 2.99999H1.33333V12.3333H10.6667V6.99999C11.1208 7.00058 11.5717 6.9237 12 6.77266V13C12 13.1768 11.9298 13.3464 11.8047 13.4714C11.6797 13.5964 11.5101 13.6667 11.3333 13.6667H0.666667C0.489856 13.6667 0.320286 13.5964 0.195262 13.4714C0.0702379 13.3464 0 13.1768 0 13V2.33333C0 2.15652 0.0702379 1.98695 0.195262 1.86192C0.320286 1.7369 0.489856 1.66666 0.666667 1.66666H6.894ZM10.6667 4.33333C11.0203 4.33333 11.3594 4.19285 11.6095 3.9428C11.8595 3.69276 12 3.35362 12 2.99999C12 2.64637 11.8595 2.30723 11.6095 2.05719C11.3594 1.80714 11.0203 1.66666 10.6667 1.66666C10.313 1.66666 9.97391 1.80714 9.72386 2.05719C9.47381 2.30723 9.33333 2.64637 9.33333 2.99999C9.33333 3.35362 9.47381 3.69276 9.72386 3.9428C9.97391 4.19285 10.313 4.33333 10.6667 4.33333ZM10.6667 5.66666C9.95942 5.66666 9.28115 5.38571 8.78105 4.88561C8.28095 4.38552 8 3.70724 8 2.99999C8 2.29275 8.28095 1.61447 8.78105 1.11438C9.28115 0.61428 9.95942 0.333328 10.6667 0.333328C11.3739 0.333328 12.0522 0.61428 12.5523 1.11438C13.0524 1.61447 13.3333 2.29275 13.3333 2.99999C13.3333 3.70724 13.0524 4.38552 12.5523 4.88561C12.0522 5.38571 11.3739 5.66666 10.6667 5.66666Z" fill="#6AB1AB"/>
</svg>
