<svg width="289" height="60" viewBox="0 0 289 60" fill="none" xmlns="http://www.w3.org/2000/svg">
<path fill-rule="evenodd" clip-rule="evenodd" d="M61.3401 37.8351C58.7644 35.7852 56.4883 34.0881 54.3652 32.2179C53.8528 31.7654 53.6731 30.7338 53.6598 29.9684C53.5799 26.9402 53.6132 23.9054 53.6464 20.8772C53.6664 19.3531 53.7063 17.9289 51.5567 17.9488C49.4868 17.9688 49.6466 19.3864 49.6599 20.7707C49.6732 23.7723 49.6599 26.7805 49.6599 30.4609C46.8913 28.258 44.5685 26.4211 42.2525 24.5709C35.9764 19.5661 38.3125 19.9055 31.5839 24.1317C27.5241 26.6807 23.5043 29.2896 19.4844 31.8985C18.8256 32.3178 18.2599 32.8768 17.0486 33.8618C19.0319 34.0681 20.2232 34.2012 21.7672 34.361C21.7672 35.8118 21.7672 37.2161 21.7672 38.6204C21.7672 44.9297 21.694 51.2456 21.8072 57.5616C21.8338 59.485 21.2015 60.084 19.3513 59.9908C16.9088 59.8577 14.4663 59.9841 12.0171 59.9508C4.95577 59.8577 0.203835 55.4185 0.11066 48.3505C-0.0424137 36.1446 -0.0291025 23.9386 0.104005 11.7327C0.183869 4.77784 4.89587 0.198954 12.0903 0.112434C24.7156 -0.0273289 37.3475 -0.047295 49.9727 0.112434C57.0673 0.205609 61.4798 4.99082 61.5131 12.0988C61.553 20.1784 61.5663 28.258 61.5796 36.3443C61.573 36.6438 61.4798 36.9632 61.3401 37.8351Z" fill="white"/>
<path d="M69.1501 18.2497V16.8354H79.0248V18.2497H74.8846V30.0015H73.2903V18.2497H69.1501Z" fill="white"/>
<path d="M82.7968 24.0613V30.0015H81.2797V16.8354H82.7968V21.6698H82.9254C83.1569 21.1598 83.504 20.7548 83.9669 20.4548C84.434 20.1505 85.0555 19.9983 85.8312 19.9983C86.5041 19.9983 87.0934 20.1333 87.5991 20.4033C88.1049 20.6691 88.497 21.0784 88.7756 21.6312C89.0585 22.1798 89.1999 22.8784 89.1999 23.727V30.0015H87.6827V23.8299C87.6827 23.0456 87.4791 22.4391 87.072 22.0105C86.6691 21.5777 86.1098 21.3612 85.3941 21.3612C84.8969 21.3612 84.4512 21.4662 84.0569 21.6762C83.6669 21.8862 83.3583 22.1927 83.1311 22.5955C82.9083 22.9984 82.7968 23.487 82.7968 24.0613Z" fill="white"/>
<path d="M96.1157 30.2072C95.1642 30.2072 94.3435 29.9972 93.6534 29.5772C92.9677 29.1529 92.4384 28.5615 92.0655 27.8029C91.697 27.04 91.5127 26.1528 91.5127 25.1413C91.5127 24.1299 91.697 23.2384 92.0655 22.467C92.4384 21.6912 92.957 21.0869 93.6213 20.6541C94.2899 20.2169 95.0699 19.9983 95.9614 19.9983C96.4757 19.9983 96.9836 20.084 97.485 20.2555C97.9864 20.4269 98.4429 20.7055 98.8543 21.0912C99.2658 21.4727 99.5936 21.9784 99.8379 22.6084C100.082 23.2384 100.204 24.0142 100.204 24.9356V25.5785H92.5927V24.267H98.6615C98.6615 23.7099 98.55 23.2127 98.3272 22.7756C98.1086 22.3384 97.7957 21.9934 97.3886 21.7405C96.9857 21.4877 96.51 21.3612 95.9614 21.3612C95.3571 21.3612 94.8342 21.5112 94.3928 21.8112C93.9556 22.107 93.6192 22.4927 93.3834 22.9684C93.1477 23.4441 93.0299 23.9542 93.0299 24.4985V25.3728C93.0299 26.1185 93.1584 26.7507 93.4156 27.2693C93.677 27.7836 94.0392 28.1757 94.502 28.4457C94.9649 28.7115 95.5028 28.8443 96.1157 28.8443C96.5143 28.8443 96.8743 28.7886 97.1957 28.6772C97.5214 28.5615 97.8022 28.39 98.0379 28.1629C98.2736 27.9314 98.4557 27.6443 98.5843 27.3014L100.05 27.7129C99.8958 28.21 99.6365 28.6472 99.2722 29.0243C98.9079 29.3972 98.4579 29.6886 97.9222 29.8986C97.3864 30.1044 96.7843 30.2072 96.1157 30.2072Z" fill="white"/>
<path d="M32.5928 54.8316V39.0323H38.5175C39.7313 39.0323 40.7496 39.2431 41.5725 39.6649C42.4005 40.0866 43.0254 40.678 43.4471 41.4392C43.874 42.1952 44.0874 43.0773 44.0874 44.0853C44.0874 45.0985 43.8714 45.9779 43.4394 46.7237C43.0125 47.4643 42.3825 48.0377 41.5494 48.444C40.7162 48.8452 39.6927 49.0457 38.479 49.0457H34.2591V46.6697H38.0932C38.803 46.6697 39.3841 46.5719 39.8367 46.3765C40.2893 46.1759 40.6236 45.8853 40.8396 45.5048C41.0608 45.119 41.1713 44.6459 41.1713 44.0853C41.1713 43.5247 41.0608 43.0464 40.8396 42.6504C40.6185 42.2492 40.2816 41.9458 39.829 41.7401C39.3764 41.5292 38.7927 41.4238 38.0778 41.4238H35.4549V54.8316H32.5928ZM40.7548 47.6725L44.666 54.8316H41.4722L37.6304 47.6725H40.7548Z" fill="white"/>
<path d="M46.5985 54.8316V42.9821H49.3912V54.8316H46.5985ZM48.0026 41.3003C47.5603 41.3003 47.1797 41.1538 46.8608 40.8606C46.5419 40.5623 46.3825 40.2049 46.3825 39.7883C46.3825 39.3666 46.5419 39.0091 46.8608 38.716C47.1797 38.4177 47.5603 38.2685 48.0026 38.2685C48.45 38.2685 48.8306 38.4177 49.1443 38.716C49.4632 39.0091 49.6226 39.3666 49.6226 39.7883C49.6226 40.2049 49.4632 40.5623 49.1443 40.8606C48.8306 41.1538 48.45 41.3003 48.0026 41.3003Z" fill="white"/>
<path d="M57.4162 59.5221C56.4133 59.5221 55.5519 59.3858 54.8319 59.1132C54.1118 58.8458 53.5332 58.4858 53.0961 58.0332C52.6589 57.5806 52.3555 57.0791 52.1858 56.5288L54.7007 55.9194C54.8139 56.1508 54.9784 56.3797 55.1944 56.606C55.4104 56.8374 55.701 57.0277 56.0662 57.1769C56.4365 57.3311 56.9019 57.4083 57.4625 57.4083C58.2545 57.4083 58.9103 57.2154 59.4297 56.8297C59.9492 56.4491 60.2089 55.8217 60.2089 54.9474V52.7024H60.07C59.926 52.9904 59.7152 53.2862 59.4374 53.5896C59.1649 53.893 58.8023 54.1476 58.3497 54.3533C57.9022 54.5591 57.3391 54.6619 56.6602 54.6619C55.7499 54.6619 54.9244 54.4485 54.1838 54.0216C53.4484 53.5896 52.8621 52.9467 52.4249 52.093C51.9929 51.2341 51.7769 50.1592 51.7769 48.8683C51.7769 47.5671 51.9929 46.4691 52.4249 45.5742C52.8621 44.6742 53.451 43.9927 54.1915 43.5298C54.9321 43.0618 55.7576 42.8278 56.6679 42.8278C57.3622 42.8278 57.9331 42.9461 58.3805 43.1827C58.8331 43.4141 59.1931 43.6944 59.4606 44.0236C59.728 44.3476 59.9312 44.6536 60.07 44.9416H60.2243V42.9821H62.9784V55.0245C62.9784 56.0377 62.7367 56.876 62.2532 57.5394C61.7698 58.2029 61.1089 58.6992 60.2706 59.0283C59.4323 59.3575 58.4808 59.5221 57.4162 59.5221ZM57.4394 52.471C58.0308 52.471 58.5348 52.327 58.9514 52.039C59.368 51.751 59.6843 51.337 59.9003 50.7969C60.1163 50.2569 60.2243 49.6089 60.2243 48.8529C60.2243 48.1071 60.1163 47.454 59.9003 46.8934C59.6894 46.3328 59.3757 45.8982 58.9591 45.5896C58.5477 45.2759 58.0411 45.119 57.4394 45.119C56.8171 45.119 56.2976 45.281 55.881 45.6051C55.4644 45.9291 55.1507 46.3739 54.9399 46.9397C54.729 47.5003 54.6236 48.138 54.6236 48.8529C54.6236 49.578 54.729 50.2132 54.9399 50.7584C55.1559 51.2984 55.4722 51.7201 55.8887 52.0235C56.3105 52.3218 56.8273 52.471 57.4394 52.471Z" fill="white"/>
<path d="M68.6332 47.8886V54.8316H65.8405V39.0323H68.5714V44.9956H68.7103C68.988 44.327 69.4175 43.7999 69.9986 43.4141C70.5849 43.0233 71.3307 42.8278 72.2359 42.8278C73.0587 42.8278 73.7762 43.0001 74.3882 43.3447C75.0002 43.6893 75.4734 44.1933 75.8077 44.8567C76.1471 45.5202 76.3168 46.3302 76.3168 47.2868V54.8316H73.5242V47.7188C73.5242 46.9217 73.3185 46.3019 72.907 45.8596C72.5007 45.4122 71.9298 45.1885 71.1944 45.1885C70.7007 45.1885 70.2584 45.2965 69.8675 45.5125C69.4818 45.7233 69.1783 46.0294 68.9572 46.4305C68.7412 46.8317 68.6332 47.3177 68.6332 47.8886Z" fill="white"/>
<path d="M85.0806 42.9821V45.1422H78.2686V42.9821H85.0806ZM79.9504 40.1432H82.743V51.2675C82.743 51.643 82.7996 51.931 82.9128 52.1316C83.0311 52.327 83.1854 52.4607 83.3756 52.5327C83.5659 52.6047 83.7768 52.6407 84.0082 52.6407C84.1831 52.6407 84.3425 52.6279 84.4865 52.6021C84.6357 52.5764 84.7488 52.5533 84.826 52.5327L85.2966 54.7159C85.1474 54.7673 84.934 54.8239 84.6563 54.8856C84.3837 54.9474 84.0494 54.9834 83.6534 54.9936C82.9539 55.0142 82.3239 54.9088 81.7633 54.6773C81.2027 54.4408 80.7578 54.0756 80.4287 53.5819C80.1047 53.0882 79.9452 52.471 79.9504 51.7304V40.1432Z" fill="white"/>
<path d="M92.9282 54.8316V39.0323H98.8529C100.067 39.0323 101.085 39.2586 101.908 39.7111C102.736 40.1637 103.361 40.786 103.783 41.5781C104.209 42.3649 104.423 43.2598 104.423 44.2627C104.423 45.2759 104.209 46.1759 103.783 46.9628C103.356 47.7497 102.726 48.3694 101.892 48.822C101.059 49.2695 100.033 49.4932 98.8144 49.4932H94.8877V47.1402H98.4286C99.1384 47.1402 99.7195 47.0168 100.172 46.7699C100.625 46.5231 100.959 46.1836 101.175 45.7516C101.396 45.3196 101.507 44.8233 101.507 44.2627C101.507 43.7021 101.396 43.2084 101.175 42.7815C100.959 42.3547 100.622 42.0229 100.164 41.7864C99.7118 41.5446 99.1281 41.4238 98.4132 41.4238H95.7903V54.8316H92.9282Z" fill="white"/>
<path d="M106.785 54.8316V42.9821H109.493V44.957H109.617C109.833 44.273 110.203 43.7458 110.728 43.3756C111.257 43.0001 111.862 42.8124 112.54 42.8124C112.695 42.8124 112.867 42.8201 113.057 42.8355C113.253 42.8458 113.415 42.8638 113.543 42.8895V45.4585C113.425 45.4173 113.237 45.3813 112.98 45.3505C112.728 45.3145 112.484 45.2965 112.247 45.2965C111.738 45.2965 111.28 45.407 110.874 45.6282C110.473 45.8442 110.157 46.1451 109.925 46.5308C109.694 46.9165 109.578 47.3614 109.578 47.8654V54.8316H106.785Z" fill="white"/>
<path d="M120.079 55.0631C118.922 55.0631 117.919 54.8085 117.071 54.2993C116.222 53.7902 115.564 53.0779 115.096 52.1624C114.633 51.247 114.402 50.1772 114.402 48.9532C114.402 47.7291 114.633 46.6568 115.096 45.7362C115.564 44.8156 116.222 44.1007 117.071 43.5916C117.919 43.0824 118.922 42.8278 120.079 42.8278C121.237 42.8278 122.24 43.0824 123.088 43.5916C123.937 44.1007 124.592 44.8156 125.055 45.7362C125.523 46.6568 125.757 47.7291 125.757 48.9532C125.757 50.1772 125.523 51.247 125.055 52.1624C124.592 53.0779 123.937 53.7902 123.088 54.2993C122.24 54.8085 121.237 55.0631 120.079 55.0631ZM120.095 52.8259C120.722 52.8259 121.247 52.6536 121.669 52.309C122.09 51.9593 122.404 51.4912 122.61 50.9049C122.821 50.3186 122.926 49.6655 122.926 48.9454C122.926 48.2203 122.821 47.5645 122.61 46.9782C122.404 46.3868 122.09 45.9162 121.669 45.5665C121.247 45.2168 120.722 45.0419 120.095 45.0419C119.452 45.0419 118.917 45.2168 118.49 45.5665C118.069 45.9162 117.752 46.3868 117.541 46.9782C117.336 47.5645 117.233 48.2203 117.233 48.9454C117.233 49.6655 117.336 50.3186 117.541 50.9049C117.752 51.4912 118.069 51.9593 118.49 52.309C118.917 52.6536 119.452 52.8259 120.095 52.8259Z" fill="white"/>
<path d="M128.128 59.2752V42.9821H130.874V44.9416H131.036C131.18 44.6536 131.383 44.3476 131.646 44.0236C131.908 43.6944 132.263 43.4141 132.71 43.1827C133.158 42.9461 133.728 42.8278 134.423 42.8278C135.338 42.8278 136.164 43.0618 136.899 43.5298C137.64 43.9927 138.226 44.6793 138.658 45.5896C139.095 46.4948 139.314 47.6057 139.314 48.9223C139.314 50.2235 139.1 51.3292 138.673 52.2396C138.247 53.1499 137.665 53.8442 136.93 54.3225C136.195 54.8008 135.361 55.0399 134.43 55.0399C133.752 55.0399 133.188 54.9268 132.741 54.7005C132.294 54.4742 131.934 54.2016 131.661 53.8827C131.393 53.5587 131.185 53.2527 131.036 52.9647H130.92V59.2752H128.128ZM130.866 48.9069C130.866 49.6732 130.974 50.3443 131.19 50.9204C131.411 51.4964 131.728 51.9464 132.139 52.2704C132.556 52.5893 133.06 52.7487 133.651 52.7487C134.268 52.7487 134.785 52.5841 135.202 52.255C135.618 51.9207 135.932 51.4655 136.143 50.8895C136.359 50.3083 136.467 49.6475 136.467 48.9069C136.467 48.1714 136.362 47.5183 136.151 46.9474C135.94 46.3765 135.626 45.9291 135.21 45.6051C134.793 45.281 134.274 45.119 133.651 45.119C133.055 45.119 132.548 45.2759 132.132 45.5896C131.715 45.9033 131.399 46.3431 131.183 46.9088C130.972 47.4745 130.866 48.1406 130.866 48.9069Z" fill="white"/>
<path d="M146.951 55.0631C145.763 55.0631 144.737 54.8162 143.873 54.3225C143.014 53.8236 142.353 53.119 141.89 52.2087C141.428 51.2932 141.196 50.2158 141.196 48.9763C141.196 47.7574 141.428 46.6877 141.89 45.7671C142.358 44.8413 143.012 44.1213 143.85 43.607C144.688 43.0875 145.673 42.8278 146.805 42.8278C147.535 42.8278 148.224 42.9461 148.872 43.1827C149.525 43.4141 150.101 43.7741 150.6 44.2627C151.104 44.7513 151.5 45.3736 151.788 46.1296C152.076 46.8805 152.22 47.7754 152.22 48.8143V49.6706H142.508V47.7883H149.543C149.538 47.2534 149.422 46.7777 149.196 46.3611C148.97 45.9393 148.653 45.6076 148.247 45.3659C147.846 45.1242 147.378 45.0033 146.843 45.0033C146.272 45.0033 145.771 45.1422 145.339 45.4199C144.907 45.6925 144.57 46.0525 144.328 46.4999C144.092 46.9422 143.971 47.4283 143.966 47.958V49.6012C143.966 50.2903 144.092 50.8818 144.344 51.3755C144.596 51.8641 144.948 52.2396 145.401 52.5018C145.853 52.759 146.383 52.8876 146.99 52.8876C147.396 52.8876 147.764 52.831 148.093 52.7179C148.422 52.5996 148.707 52.4273 148.949 52.201C149.191 51.9747 149.374 51.6944 149.497 51.3601L152.104 51.6532C151.94 52.3424 151.626 52.9441 151.163 53.4585C150.706 53.9676 150.119 54.3636 149.404 54.6465C148.689 54.9242 147.872 55.0631 146.951 55.0631Z" fill="white"/>
<path d="M154.583 54.8316V42.9821H157.291V44.957H157.414C157.63 44.273 158 43.7458 158.525 43.3756C159.055 43.0001 159.659 42.8124 160.338 42.8124C160.492 42.8124 160.664 42.8201 160.855 42.8355C161.05 42.8458 161.212 42.8638 161.341 42.8895V45.4585C161.222 45.4173 161.035 45.3813 160.778 45.3505C160.526 45.3145 160.281 45.2965 160.045 45.2965C159.535 45.2965 159.078 45.407 158.671 45.6282C158.27 45.8442 157.954 46.1451 157.723 46.5308C157.491 46.9165 157.375 47.3614 157.375 47.8654V54.8316H154.583Z" fill="white"/>
<path d="M169.75 42.9821V45.1422H162.938V42.9821H169.75ZM164.619 40.1432H167.412V51.2675C167.412 51.643 167.469 51.931 167.582 52.1316C167.7 52.327 167.854 52.4607 168.045 52.5327C168.235 52.6047 168.446 52.6407 168.677 52.6407C168.852 52.6407 169.012 52.6279 169.156 52.6021C169.305 52.5764 169.418 52.5533 169.495 52.5327L169.966 54.7159C169.816 54.7673 169.603 54.8239 169.325 54.8856C169.053 54.9474 168.718 54.9834 168.322 54.9936C167.623 55.0142 166.993 54.9088 166.432 54.6773C165.872 54.4408 165.427 54.0756 165.098 53.5819C164.774 53.0882 164.614 52.471 164.619 51.7304V40.1432Z" fill="white"/>
<path d="M173.821 59.2752C173.44 59.2752 173.088 59.2444 172.764 59.1826C172.445 59.1261 172.191 59.0592 172 58.9821L172.648 56.8066C173.055 56.9248 173.417 56.9814 173.736 56.9763C174.055 56.9711 174.335 56.8708 174.577 56.6754C174.824 56.4851 175.032 56.1663 175.202 55.7188L175.441 55.0785L171.144 42.9821H174.106L176.837 51.931H176.961L179.699 42.9821H182.669L177.925 56.2665C177.704 56.894 177.411 57.4314 177.046 57.8789C176.68 58.3315 176.233 58.6761 175.703 58.9126C175.179 59.1544 174.551 59.2752 173.821 59.2752Z" fill="white"/>
<path d="M203.638 44.363H200.752C200.67 43.8899 200.518 43.4707 200.297 43.1055C200.076 42.7352 199.801 42.4215 199.472 42.1644C199.143 41.9072 198.767 41.7144 198.345 41.5858C197.929 41.4521 197.479 41.3852 196.995 41.3852C196.136 41.3852 195.375 41.6012 194.712 42.0332C194.048 42.4601 193.529 43.0875 193.154 43.9156C192.778 44.7385 192.59 45.7439 192.59 46.932C192.59 48.1406 192.778 49.1589 193.154 49.9869C193.534 50.8098 194.054 51.4321 194.712 51.8538C195.375 52.2704 196.134 52.4787 196.988 52.4787C197.461 52.4787 197.903 52.417 198.315 52.2936C198.731 52.165 199.104 51.9773 199.433 51.7304C199.767 51.4835 200.048 51.1801 200.274 50.8201C200.505 50.4601 200.665 50.0486 200.752 49.5858L203.638 49.6012C203.53 50.3521 203.296 51.0567 202.936 51.715C202.581 52.3733 202.115 52.9544 201.539 53.4585C200.963 53.9573 200.289 54.3482 199.518 54.6311C198.747 54.9088 197.89 55.0476 196.949 55.0476C195.56 55.0476 194.321 54.7262 193.231 54.0833C192.14 53.4404 191.281 52.5121 190.654 51.2984C190.027 50.0846 189.713 48.6292 189.713 46.932C189.713 45.2296 190.029 43.7741 190.662 42.5655C191.294 41.3518 192.156 40.4235 193.246 39.7806C194.336 39.1377 195.571 38.8163 196.949 38.8163C197.829 38.8163 198.646 38.9397 199.402 39.1866C200.158 39.4334 200.832 39.796 201.423 40.2743C202.015 40.7475 202.501 41.3286 202.882 42.0178C203.267 42.7018 203.519 43.4836 203.638 44.363Z" fill="white"/>
<path d="M211.304 55.0631C210.147 55.0631 209.144 54.8085 208.295 54.2993C207.447 53.7902 206.788 53.0779 206.32 52.1624C205.857 51.247 205.626 50.1772 205.626 48.9532C205.626 47.7291 205.857 46.6568 206.32 45.7362C206.788 44.8156 207.447 44.1007 208.295 43.5916C209.144 43.0824 210.147 42.8278 211.304 42.8278C212.461 42.8278 213.464 43.0824 214.313 43.5916C215.161 44.1007 215.817 44.8156 216.28 45.7362C216.748 46.6568 216.982 47.7291 216.982 48.9532C216.982 50.1772 216.748 51.247 216.28 52.1624C215.817 53.0779 215.161 53.7902 214.313 54.2993C213.464 54.8085 212.461 55.0631 211.304 55.0631ZM211.319 52.8259C211.947 52.8259 212.471 52.6536 212.893 52.309C213.315 51.9593 213.629 51.4912 213.834 50.9049C214.045 50.3186 214.151 49.6655 214.151 48.9454C214.151 48.2203 214.045 47.5645 213.834 46.9782C213.629 46.3868 213.315 45.9162 212.893 45.5665C212.471 45.2168 211.947 45.0419 211.319 45.0419C210.676 45.0419 210.142 45.2168 209.715 45.5665C209.293 45.9162 208.977 46.3868 208.766 46.9782C208.56 47.5645 208.457 48.2203 208.457 48.9454C208.457 49.6655 208.56 50.3186 208.766 50.9049C208.977 51.4912 209.293 51.9593 209.715 52.309C210.142 52.6536 210.676 52.8259 211.319 52.8259Z" fill="white"/>
<path d="M219.352 54.8316V42.9821H222.021V44.9956H222.16C222.407 44.3167 222.816 43.787 223.387 43.4064C223.958 43.0207 224.639 42.8278 225.431 42.8278C226.233 42.8278 226.91 43.0233 227.46 43.4141C228.016 43.7999 228.406 44.327 228.633 44.9956H228.756C229.018 44.3373 229.461 43.8127 230.083 43.4218C230.71 43.0258 231.454 42.8278 232.312 42.8278C233.403 42.8278 234.293 43.1724 234.982 43.8616C235.671 44.5507 236.015 45.5562 236.015 46.878V54.8316H233.215V47.31C233.215 46.5745 233.02 46.0371 232.629 45.6976C232.238 45.353 231.76 45.1808 231.194 45.1808C230.52 45.1808 229.993 45.3916 229.612 45.8133C229.237 46.2299 229.049 46.7725 229.049 47.4411V54.8316H226.311V47.1942C226.311 46.5822 226.125 46.0936 225.755 45.7285C225.39 45.3633 224.912 45.1808 224.32 45.1808C223.919 45.1808 223.554 45.2836 223.225 45.4893C222.896 45.6899 222.633 45.9754 222.438 46.3456C222.242 46.7108 222.145 47.1377 222.145 47.6263V54.8316H219.352Z" fill="white"/>
<path d="M238.849 59.2752V42.9821H241.595V44.9416H241.757C241.901 44.6536 242.104 44.3476 242.366 44.0236C242.629 43.6944 242.984 43.4141 243.431 43.1827C243.879 42.9461 244.449 42.8278 245.144 42.8278C246.059 42.8278 246.885 43.0618 247.62 43.5298C248.361 43.9927 248.947 44.6793 249.379 45.5896C249.816 46.4948 250.035 47.6057 250.035 48.9223C250.035 50.2235 249.821 51.3292 249.394 52.2396C248.968 53.1499 248.386 53.8442 247.651 54.3225C246.915 54.8008 246.082 55.0399 245.151 55.0399C244.473 55.0399 243.909 54.9268 243.462 54.7005C243.014 54.4742 242.654 54.2016 242.382 53.8827C242.114 53.5587 241.906 53.2527 241.757 52.9647H241.641V59.2752H238.849ZM241.587 48.9069C241.587 49.6732 241.695 50.3443 241.911 50.9204C242.132 51.4964 242.449 51.9464 242.86 52.2704C243.277 52.5893 243.781 52.7487 244.372 52.7487C244.989 52.7487 245.506 52.5841 245.923 52.255C246.339 51.9207 246.653 51.4655 246.864 50.8895C247.08 50.3083 247.188 49.6475 247.188 48.9069C247.188 48.1714 247.083 47.5183 246.872 46.9474C246.661 46.3765 246.347 45.9291 245.931 45.6051C245.514 45.281 244.995 45.119 244.372 45.119C243.776 45.119 243.269 45.2759 242.852 45.5896C242.436 45.9033 242.12 46.3431 241.904 46.9088C241.693 47.4745 241.587 48.1406 241.587 48.9069Z" fill="white"/>
<path d="M255.836 55.0708C255.085 55.0708 254.409 54.9371 253.807 54.6696C253.211 54.3971 252.737 53.9959 252.388 53.4662C252.043 52.9364 251.871 52.2833 251.871 51.5067C251.871 50.8381 251.994 50.2852 252.241 49.848C252.488 49.4109 252.825 49.0612 253.252 48.7989C253.679 48.5366 254.159 48.3386 254.694 48.2049C255.234 48.066 255.792 47.9657 256.368 47.904C257.063 47.832 257.626 47.7677 258.058 47.7111C258.49 47.6494 258.804 47.5568 258.999 47.4334C259.2 47.3048 259.3 47.1068 259.3 46.8394V46.7931C259.3 46.2119 259.128 45.7619 258.783 45.443C258.438 45.1242 257.942 44.9647 257.294 44.9647C256.61 44.9647 256.067 45.1139 255.666 45.4122C255.27 45.7105 255.003 46.0628 254.864 46.4691L252.257 46.0988C252.462 45.3788 252.802 44.777 253.275 44.2936C253.748 43.805 254.327 43.4398 255.011 43.1981C255.695 42.9513 256.451 42.8278 257.279 42.8278C257.85 42.8278 258.418 42.8947 258.984 43.0284C259.549 43.1621 260.066 43.3833 260.534 43.6918C261.002 43.9953 261.378 44.4093 261.661 44.9339C261.949 45.4585 262.093 46.1142 262.093 46.9011V54.8316H259.408V53.2039H259.315C259.146 53.533 258.906 53.8416 258.598 54.1296C258.294 54.4125 257.911 54.6413 257.448 54.8162C256.991 54.9859 256.453 55.0708 255.836 55.0708ZM256.561 53.0187C257.122 53.0187 257.608 52.9081 258.019 52.687C258.431 52.4607 258.747 52.1624 258.968 51.7921C259.194 51.4218 259.308 51.0181 259.308 50.5809V49.1846C259.22 49.2566 259.071 49.3235 258.86 49.3852C258.654 49.4469 258.423 49.5009 258.166 49.5472C257.909 49.5935 257.654 49.6346 257.402 49.6706C257.15 49.7066 256.932 49.7375 256.746 49.7632C256.33 49.8198 255.957 49.9123 255.628 50.0409C255.299 50.1695 255.039 50.3495 254.849 50.5809C254.658 50.8072 254.563 51.1004 254.563 51.4604C254.563 51.9747 254.751 52.363 255.126 52.6253C255.502 52.8876 255.98 53.0187 256.561 53.0187Z" fill="white"/>
<path d="M267.693 47.8886V54.8316H264.901V42.9821H267.57V44.9956H267.709C267.981 44.3322 268.416 43.805 269.012 43.4141C269.614 43.0233 270.357 42.8278 271.242 42.8278C272.06 42.8278 272.772 43.0027 273.379 43.3524C273.991 43.7021 274.464 44.2087 274.798 44.8722C275.138 45.5356 275.305 46.3405 275.3 47.2868V54.8316H272.507V47.7188C272.507 46.9268 272.301 46.3071 271.89 45.8596C271.484 45.4122 270.921 45.1885 270.201 45.1885C269.712 45.1885 269.277 45.2965 268.897 45.5125C268.521 45.7233 268.226 46.0294 268.01 46.4305C267.799 46.8317 267.693 47.3177 267.693 47.8886Z" fill="white"/>
<path d="M279.45 59.2752C279.07 59.2752 278.717 59.2444 278.393 59.1826C278.074 59.1261 277.82 59.0592 277.63 58.9821L278.278 56.8066C278.684 56.9248 279.047 56.9814 279.365 56.9763C279.684 56.9711 279.965 56.8708 280.206 56.6754C280.453 56.4851 280.661 56.1663 280.831 55.7188L281.07 55.0785L276.773 42.9821H279.736L282.467 51.931H282.59L285.329 42.9821H288.299L283.554 56.2665C283.333 56.894 283.04 57.4314 282.675 57.8789C282.31 58.3315 281.862 58.6761 281.333 58.9126C280.808 59.1544 280.181 59.2752 279.45 59.2752Z" fill="white"/>
</svg>
