<svg width="24" height="24" viewBox="0 0 24 24" fill="none" xmlns="http://www.w3.org/2000/svg">
<path fill-rule="evenodd" clip-rule="evenodd" d="M5 5.5C5 4.94772 5.44772 4.5 6 4.5H18C18.5523 4.5 19 4.94772 19 5.5V22C19 22.5523 18.5523 23 18 23H14C14.5523 23 15 22.5523 15 22V16.5C15 15.9477 14.5523 15.5 14 15.5H10C9.44772 15.5 9 15.9477 9 16.5V22C9 22.5523 9.44772 23 10 23H6C5.44772 23 5 22.5523 5 22V5.5ZM10.5 14H8V12H10.5V14ZM8 10H10.5V8H8V10ZM18 14H13V12H18V14ZM13 10H18V8H13V10Z" fill="#26426A"/>
<path fill-rule="evenodd" clip-rule="evenodd" d="M3 21H21V23H3V21Z" fill="#26426A"/>
<path fill-rule="evenodd" clip-rule="evenodd" d="M8 2V5.5H6V2H8Z" fill="#26426A"/>
<path fill-rule="evenodd" clip-rule="evenodd" d="M11 3V5.5H9V3H11Z" fill="#26426A"/>
</svg>
