<svg width="19" height="19" viewBox="0 0 19 19" fill="none" xmlns="http://www.w3.org/2000/svg">
<path d="M6.65 11.4V14.25H12.35V11.4H19V18.05C19 18.302 18.8999 18.5436 18.7218 18.7218C18.5436 18.8999 18.302 19 18.05 19H0.95C0.698044 19 0.456408 18.8999 0.278249 18.7218C0.100089 18.5436 0 18.302 0 18.05V11.4H6.65ZM8.55 9.5H10.45V12.35H8.55V9.5ZM4.75 3.8V0.95C4.75 0.698044 4.85009 0.456408 5.02825 0.278249C5.20641 0.100089 5.44804 0 5.7 0H13.3C13.552 0 13.7936 0.100089 13.9718 0.278249C14.1499 0.456408 14.25 0.698044 14.25 0.95V3.8H18.05C18.302 3.8 18.5436 3.90009 18.7218 4.07825C18.8999 4.25641 19 4.49804 19 4.75V9.5H12.35V7.6H6.65V9.5H0V4.75C0 4.49804 0.100089 4.25641 0.278249 4.07825C0.456408 3.90009 0.698044 3.8 0.95 3.8H4.75ZM6.65 1.9V3.8H12.35V1.9H6.65Z" fill="#26416B"/>
</svg>
