<svg width="24" height="24" viewBox="0 0 24 24" fill="none" xmlns="http://www.w3.org/2000/svg">
<path fill-rule="evenodd" clip-rule="evenodd" d="M13 6.49999C13 6.20251 12.8676 5.92047 12.6386 5.73048C12.4097 5.5405 12.1081 5.4623 11.8157 5.51712L3.81571 7.01712C3.34274 7.1058 3 7.51878 3 7.99999V22C3 22.5523 3.44772 23 4 23H12C12.5523 23 13 22.5523 13 22V6.49999ZM6.5 15C5.94772 15 5.5 15.4477 5.5 16V22C5.5 22.5523 5.94772 23 6.5 23H9.5C10.0523 23 10.5 22.5523 10.5 22V16C10.5 15.4477 10.0523 15 9.5 15H6.5ZM6.5 12.5H9.5V10.5H6.5V12.5Z" fill="#26426A"/>
<path fill-rule="evenodd" clip-rule="evenodd" d="M11 1.99999C11 1.70251 11.1324 1.42047 11.3614 1.23048C11.5903 1.0405 11.8919 0.962298 12.1843 1.01712L20.1843 2.51712C20.6573 2.6058 21 3.01878 21 3.49999V22C21 22.5523 20.5523 23 20 23H12C11.4477 23 11 22.5523 11 22V1.99999ZM17.5 7.99998H14.5V5.99998H17.5V7.99998ZM14.5 12.5H17.5V10.5H14.5V12.5Z" fill="#26426A"/>
<path fill-rule="evenodd" clip-rule="evenodd" d="M2 21H22V23H2V21Z" fill="#26426A"/>
</svg>
